# AST/ASF file generated using VICON BodyLanguage
# -----------------------------------------------
:version 1.10
:name VICON
:units
  mass 1.0
  length 0.45
  angle deg
:documentation
   .ast/.asf automatically generated from VICON data using
   VICON BodyBuilder and BodyLanguage model FoxedUp or BRILLIANT.MOD
:root
   order TX TY TZ RX RY RZ
   axis XYZ
   position 0 0 0  
   orientation 0 0 0 
:bonedata
  begin
     id 1 
     name lhipjoint
     direction 0.621036 -0.695554 0.361275 
     length 2.46325 
     axis 0 0 0  XYZ
  end
  begin
     id 2 
     name lfemur
     direction 0.34202 -0.939693 0  
     length 6.54784  
     axis 0 0 20  XYZ
    dof rx ry rz
    limits (-160.0 20.0)
           (-70.0 70.0)
           (-60.0 70.0)
  end
  begin
     id 3 
     name ltibia
     direction 0.34202 -0.939693 0   
     length 7.84737   
     axis 0 0 20   XYZ
    dof rx
    limits (-10.0 170.0)
  end
  begin
     id 4 
     name lfoot
     direction 0.0790693 -0.217241 0.97291   
     length 2.59747   
     axis -90 7.62852e-016 20   XYZ
    dof rx rz
    limits (-45.0 90.0)
           (-70.0 20.0)
  end
  begin
     id 5 
     name ltoes
     direction 1.53572e-011 -4.21898e-011 1   
     length 1.29919   
     axis -90 7.62852e-016 20   XYZ
    dof rx
    limits (-90.0 20.0)
  end
  begin
     id 6 
     name rhipjoint
     direction -0.602353 -0.708375 0.367935   
     length 2.41867  
     axis 0 0 0  XYZ 
  end
  begin
     id 7 
     name rfemur
     direction -0.34202 -0.939693 0   
     length 6.92065   
     axis 0 0 -20   XYZ
    dof rx ry rz
    limits (-160.0 20.0)
           (-70.0 70.0)
           (-70.0 60.0)
  end
  begin
     id 8 
     name rtibia
     direction -0.34202 -0.939693 0   
     length 7.88883   
     axis 0 0 -20   XYZ
    dof rx
    limits (-10.0 170.0)
 end
 begin
     id 9 
     name rfoot
     direction -0.0768692 -0.211196 0.974416   
     length 2.43714  
     axis -90 -7.62852e-016 -20   XYZ
    dof rx rz
    limits (-45.0 90.0)
           (-20.0 70.0)
  end
  begin
     id 10 
     name rtoes
     direction -1.53575e-011 -4.21933e-011 1   
     length 1.22113   
     axis -90 -7.62852e-016 -20   XYZ
    dof rx
    limits (-90.0 20.0)
  end
  begin
     id 11 
     name lowerback
     direction 0.0197937 0.98943 -0.143655   
     length 2.16931   
     axis 0 0 0   XYZ
    dof rx ry rz
    limits (-20.0 45.0)
           (-30.0 30.0)
           (-30.0 30.0)
  end
  begin
     id 12 
     name upperback
     direction -0.00183968 0.999975 0.00684288   
     length 2.17221   
     axis 0 0 0   XYZ
    dof rx ry rz
    limits (-20.0 45.0)
           (-30.0 30.0)
           (-30.0 30.0)
  end
  begin
     id 13 
     name thorax
     direction -0.00950244 0.997208 0.0740685   
     length 2.22549   
     axis 0 0 0   XYZ
    dof rx ry rz
    limits (-20.0 45.0)
           (-30.0 30.0)
           (-30.0 30.0)
  end
  begin
     id 14 
     name lowerneck
     direction 0.0218238 0.996215 0.0841425   
     length 1.77269   
     axis 0 0 0   XYZ
    dof rx ry rz
    limits (-20.0 45.0)
           (-30.0 30.0)
           (-30.0 30.0)
  end
  begin
     id 15 
     name upperneck
     direction -0.00430652 0.994214 -0.107332   
     length 1.76534   
     axis 0 0 0   XYZ
    dof rx ry rz
    limits (-20.0 45.0)
           (-30.0 30.0)
           (-30.0 30.0)
  end
  begin
     id 16
     name head
     direction -0.00328946 0.998959 -0.0454998  
     length 1.82634  
     axis 0 0 0   XYZ
    dof rx ry rz
    limits (-20.0 45.0)
           (-30.0 30.0)
           (-30.0 30.0)
  end
  begin
     id 17 
     name lclavicle
     direction 0.970962 0.239191 0.00450212  
     length 3.84872  
     axis 0 0 0   XYZ
    dof ry rz
    limits (-20.0 10.0)
           (0.0 20.0)
  end
  begin
     id 18 
     name lhumerus
     direction 1 -4.48966e-011 5.74696e-028   
     length 5.22771   
     axis 180 -30 -90   XYZ
    dof rx ry rz
    limits (-60.0 90.0)
           (-90.0 90.0)
           (-90.0 90.0)
  end
  begin
     id 19
     name lradius
     direction 1 -4.4896e-011 4.25109e-027   
     length 3.45251   
     axis 180 -30 -90   XYZ
    dof rx
    limits (-10.0 170.0)
  end
  begin
     id 20
     name lwrist
     direction 1 -4.48971e-011 1.15382e-027   
     length 1.72626   
     axis -5.52449e-016 90 90   XYZ
    dof ry
    limits (-180.0 0.0)
 end
  begin
     id 21 
     name lhand
     direction 1 -4.49034e-011 2.30765e-027   
     length 0.552119   
     axis -1.47248e-015 90 90   XYZ
    dof rx rz
    limits (-90.0 90.0)
           (-45.0 45.0)
  end
  begin
     id 22 
     name lfingers
     direction 1 -4.48951e-011 4.61529e-027   
     length 0.445133   
     axis -2.94495e-015 90 90   XYZ
    dof rx
    limits (0.0 90.0)
  end
  begin
     id 23
     name lthumb
     direction 0.707107 -6.34991e-011 0.707107   
     length 0.639124   
     axis -90 45 2.85299e-015   XYZ
    dof rx rz
    limits (-45.0 45.0)
           (-45.0 45.0)
  end
  begin
     id 24 
     name rclavicle
     direction -0.97424 0.222511 -0.0366699   
     length 3.73439  
     axis 0 0 0   XYZ 
    dof ry rz
    limits (-10.0 20.0)
           (-20.0 0.0)
  end
  begin
     id 25 
     name rhumerus
     direction -1 -4.48956e-011 -4.97258e-028  
     length 5.2398   
     axis 180 30 90   XYZ
    dof rx ry rz
    limits (-90.0 60.0)
           (-90.0 90.0)
           (-90.0 90.0)
  end
  begin
     id 26 
     name rradius
     direction -1 -4.4897e-011 -1.72611e-027   
     length 3.48042   
     axis 180 30 90   XYZ
    dof rx
    limits (-10.0 170.0)
  end
  begin
     id 27 
     name rwrist
     direction -1 -4.48976e-011 1.15382e-027   
     length 1.74021   
     axis -5.52449e-016 -90 -90   XYZ
    dof ry
    limits (-180.0 0.0)
  end
  begin
     id 28
     name rhand
     direction -1 -4.48963e-011 2.30765e-027   
     length 0.618713   
     axis -1.47248e-015 -90 -90   XYZ
    dof rx rz
    limits (-90.0 90.0)
           (-45.0 45.0)
  end
  begin
     id 29
     name rfingers
     direction -1 -4.4888e-011 4.61529e-027   
     length 0.498823   
     axis -2.94495e-015 -90 -90   XYZ
    dof rx
    limits (0.0 90.0)
  end
  begin
     id 30
     name rthumb
     direction -0.707107 -6.34968e-011 0.707107   
     length 0.716213   
     axis -90 -45 -2.85299e-015   XYZ
    dof rx rz
    limits (-45.0 45.0)
           (-45.0 45.0)
  end
:hierarchy
  begin
    root lhipjoint rhipjoint lowerback
    lhipjoint lfemur
    lfemur ltibia
    ltibia lfoot
    lfoot ltoes
    rhipjoint rfemur
    rfemur rtibia
    rtibia rfoot
    rfoot rtoes
    lowerback upperback
    upperback thorax
    thorax lowerneck lclavicle rclavicle
    lowerneck upperneck
    upperneck head
    lclavicle lhumerus
    lhumerus lradius
    lradius lwrist
    lwrist lhand lthumb
    lhand lfingers
    rclavicle rhumerus
    rhumerus rradius
    rradius rwrist
    rwrist rhand rthumb
    rhand rfingers
  end

#!OML:ASF G:\JayActor3\Patient Classification 1\Patient 1\Session 5\male.ASF
:FULLY-SPECIFIED
:DEGREES
1
root 45.9105 13.7352 -3.7952 -174.107 84.6456 169.127
lowerback 28.9093 -1.93685 0.388117
upperback 6.98985 -1.67188 0.146407
thorax -8.09334 -0.518984 0.481108
lowerneck -4.78164 -0.81932 2.01734
upperneck -19.5485 -0.282868 0.791065
head -5.11278 0.00316025 -0.112046
rclavicle -2.34069e-014 -9.0944e-015
rhumerus -17.3987 7.13918 -85.1462
rradius 45.9552
rwrist -6.35837
rhand -21.0431 -7.91156
rfingers 7.12502
rthumb 5.33272 -37.8245
lclavicle -2.34069e-014 -9.0944e-015
lhumerus -19.3604 -10.5518 83.8679
lradius 44.0361
lwrist 23.5873
lhand -13.8256 13.7875
lfingers 7.12502
lthumb 12.2973 43.406
rfemur -64.3267 -8.90412 23.6662
rtibia 83.4342
rfoot -32.573 -9.9646
rtoes -2.9866
lfemur -62.6623 6.31389 -22.5926
ltibia 76.6208
lfoot -26.8678 7.19518
ltoes -13.3202
2
root 45.9089 13.7372 -3.7955 -173.985 84.6583 169.267
lowerback 28.936 -1.93171 0.401656
upperback 7.00895 -1.65841 0.14947
thorax -8.08514 -0.511851 0.47223
lowerneck -4.78873 -0.821362 1.97936
upperneck -19.5932 -0.275997 0.829843
head -5.12534 0.00818525 -0.0939187
rclavicle -1.95803e-014 -1.53561e-014
rhumerus -17.372 7.11482 -85.1363
rradius 45.9107
rwrist -6.38125
rhand -21.0852 -7.85717
rfingers 7.12502
rthumb 5.29212 -37.7711
lclavicle -1.95803e-014 -1.53561e-014
lhumerus -19.3429 -10.5636 83.8841
lradius 44.0154
lwrist 23.6145
lhand -13.9041 13.7826
lfingers 7.12502
lthumb 12.2216 43.4055
rfemur -64.303 -8.9043 23.6779
rtibia 83.454
rfoot -32.6121 -9.92705
rtoes -2.86591
lfemur -62.6388 6.33245 -22.5804
ltibia 76.6187
lfoot -26.8653 7.23819
ltoes -13.4749
3
root 45.887 13.7224 -3.784 -173.949 84.2728 168.898
lowerback 28.6887 -2.04419 0.388559
upperback 6.88401 -1.81732 0.204865
thorax -8.10279 -0.592659 0.593702
lowerneck -4.78075 -0.812688 2.00028
upperneck -19.602 -0.268806 0.797504
head -5.12949 0.012038 -0.107772
rclavicle 1.30701e-014 -9.44227e-016
rhumerus -17.3742 7.10998 -85.1542
rradius 45.8797
rwrist -6.37666
rhand -21.0675 -7.82634
rfingers 7.12502
rthumb 5.30919 -37.7398
lclavicle 1.30701e-014 -9.44227e-016
lhumerus -19.3569 -10.5398 83.8781
lradius 43.9945
lwrist 23.6516
lhand -14.018 13.7135
lfingers 7.12502
lthumb 12.1117 43.3429
rfemur -64.9697 -9.15173 23.7825
rtibia 83.5981
rfoot -32.5322 -10.0739
rtoes -2.94189
lfemur -63.3208 6.02852 -22.6322
ltibia 76.6842
lfoot -26.6569 7.12866
ltoes -13.4475
4
root 45.889 13.7274 -3.78634 -173.93 84.3344 168.989
lowerback 28.7424 -2.0235 0.402651
upperback 6.91579 -1.78317 0.197762
thorax -8.09403 -0.575201 0.566436
lowerneck -4.80332 -0.83026 1.99005
upperneck -19.6082 -0.2924 0.798184
head -5.12785 0.00159411 -0.105204
rclavicle 8.44835e-016 3.97569e-015
rhumerus -17.385 7.07406 -85.1335
rradius 45.8804
rwrist -6.35724
rhand -21.0352 -7.84365
rfingers 7.12502
rthumb 5.34039 -37.7564
lclavicle 8.44835e-016 3.97569e-015
lhumerus -19.3529 -10.5783 83.8981
lradius 43.9816
lwrist 23.7008
lhand -14.1325 13.7378
lfingers 7.12502
lthumb 12.0013 43.3737
rfemur -64.8434 -9.10937 23.76
rtibia 83.5773
rfoot -32.5651 -10.0253
rtoes -2.88286
lfemur -63.1888 6.06174 -22.6186
ltibia 76.6603
lfoot -26.6985 7.14398
ltoes -13.4019
5
root 45.8843 13.7268 -3.78493 -173.883 84.2754 168.974
lowerback 28.7154 -2.04004 0.410211
upperback 6.9019 -1.8029 0.207428
thorax -8.09634 -0.585215 0.579342
lowerneck -4.80385 -0.835936 1.98514
upperneck -19.6252 -0.29959 0.795171
head -5.1331 -0.00111707 -0.105163
rclavicle 1.74434e-014 2.38542e-015
rhumerus -17.3945 7.05303 -85.13
rradius 45.8673
rwrist -6.35294
rhand -21.0214 -7.84109
rfingers 7.12502
rthumb 5.35369 -37.7535
lclavicle 1.74434e-014 2.38542e-015
lhumerus -19.353 -10.5955 83.909
lradius 43.9626
lwrist 23.7467
lhand -14.2516 13.7194
lfingers 7.12502
lthumb 11.8865 43.362
rfemur -64.9409 -9.14358 23.7754
rtibia 83.6027
rfoot -32.5649 -10.0352
rtoes -2.86058
lfemur -63.2885 6.00732 -22.6225
ltibia 76.6625
lfoot -26.6667 7.13183
ltoes -13.387
6
root 45.8805 13.7271 -3.78429 -173.84 84.2376 168.975
lowerback 28.7037 -2.05087 0.419631
upperback 6.89251 -1.8144 0.213564
thorax -8.10131 -0.591108 0.584649
lowerneck -4.79735 -0.842289 1.98018
upperneck -19.6431 -0.307888 0.79142
head -5.13977 -0.00446326 -0.105296
rclavicle -1.86858e-014 3.49364e-014
rhumerus -17.4131 7.03718 -85.1282
rradius 45.8596
rwrist -6.3581
rhand -21.0185 -7.84182
rfingers 7.12502
rthumb 5.35653 -37.7541
lclavicle -1.86858e-014 3.49364e-014
lhumerus -19.3532 -10.615 83.9205
lradius 43.9423
lwrist 23.7935
lhand -14.3745 13.7048
lfingers 7.12502
lthumb 11.768 43.3542
rfemur -65.0016 -9.16133 23.7835
rtibia 83.5942
rfoot -32.5436 -10.0464
rtoes -2.85096
lfemur -63.3495 5.96796 -22.6244
ltibia 76.6437
lfoot -26.6327 7.12182
ltoes -13.3601
7
root 45.878 13.7284 -3.78463 -173.82 84.2294 168.984
lowerback 28.713 -2.05297 0.429755
upperback 6.89177 -1.81376 0.214737
thorax -8.10698 -0.590834 0.58012
lowerneck -4.78635 -0.84862 1.97233
upperneck -19.6623 -0.315729 0.790023
head -5.14758 -0.00756384 -0.104216
rclavicle -1.54058e-015 7.70291e-015
rhumerus -17.4357 7.02364 -85.126
rradius 45.8551
rwrist -6.3646
rhand -21.0212 -7.84515
rfingers 7.12502
rthumb 5.35385 -37.7575
lclavicle -1.54058e-015 7.70291e-015
lhumerus -19.35 -10.6363 83.9336
lradius 43.9202
lwrist 23.8404
lhand -14.4991 13.6897
lfingers 7.12502
lthumb 11.6478 43.346
rfemur -65.0159 -9.15855 23.7811
rtibia 83.5829
rfoot -32.5336 -10.0498
rtoes -2.83964
lfemur -63.3623 5.95064 -22.6252
ltibia 76.6245
lfoot -26.6163 7.12243
ltoes -13.335
8
root 45.8754 13.7295 -3.78513 -173.817 84.223 168.977
lowerback 28.7263 -2.05468 0.439479
upperback 6.89033 -1.81277 0.215029
thorax -8.11538 -0.590367 0.574815
lowerneck -4.77038 -0.85319 1.96449
upperneck -19.6818 -0.321154 0.788671
head -5.15626 -0.00955554 -0.103185
rclavicle 2.25124e-014 7.90169e-015
rhumerus -17.462 7.01424 -85.125
rradius 45.8538
rwrist -6.37211
rhand -21.0252 -7.8498
rfingers 7.12502
rthumb 5.35001 -37.7623
lclavicle 2.25124e-014 7.90169e-015
lhumerus -19.3434 -10.6543 83.9466
lradius 43.8959
lwrist 23.8856
lhand -14.6236 13.6681
lfingers 7.12502
lthumb 11.5278 43.3311
rfemur -65.0304 -9.15396 23.7762
rtibia 83.5701
rfoot -32.5202 -10.0578
rtoes -2.83617
lfemur -63.3733 5.93219 -22.627
ltibia 76.6043
lfoot -26.6008 7.12231
ltoes -13.2992
9
root 45.8726 13.7304 -3.78574 -173.849 84.2198 168.936
lowerback 28.7401 -2.05425 0.446472
upperback 6.8892 -1.80986 0.214865
thorax -8.12367 -0.588948 0.569918
lowerneck -4.75636 -0.857413 1.9536
upperneck -19.6978 -0.326282 0.787523
head -5.16352 -0.0112129 -0.101581
rclavicle -2.69353e-014 1.49089e-014
rhumerus -17.4883 7.00656 -85.1209
rradius 45.8553
rwrist -6.37561
rhand -21.0204 -7.85771
rfingers 7.12502
rthumb 5.35466 -37.7701
lclavicle -2.69353e-014 1.49089e-014
lhumerus -19.3318 -10.6696 83.9616
lradius 43.8704
lwrist 23.9256
lhand -14.7441 13.6478
lfingers 7.12502
lthumb 11.4115 43.3173
rfemur -65.0476 -9.14651 23.7671
rtibia 83.5581
rfoot -32.5052 -10.071
rtoes -2.84347
lfemur -63.3836 5.91398 -22.6325
ltibia 76.5837
lfoot -26.5855 7.12522
ltoes -13.2647
10
root 45.8697 13.731 -3.78642 -173.914 84.2182 168.862
lowerback 28.7568 -2.05285 0.450226
upperback 6.8875 -1.80674 0.213399
thorax -8.13391 -0.587379 0.565434
lowerneck -4.7426 -0.859314 1.94649
upperneck -19.7079 -0.329099 0.78314
head -5.16891 -0.0119077 -0.101677
rclavicle 1.42131e-014 -2.5842e-015
rhumerus -17.515 7.00207 -85.1161
rradius 45.8564
rwrist -6.37354
rhand -21.0107 -7.86179
rfingers 7.12502
rthumb 5.36405 -37.7739
lclavicle 1.42131e-014 -2.5842e-015
lhumerus -19.32 -10.6813 83.976
lradius 43.8456
lwrist 23.9638
lhand -14.8643 13.6193
lfingers 7.12502
lthumb 11.2956 43.2951
rfemur -65.0648 -9.1375 23.7538
rtibia 83.5481
rfoot -32.4926 -10.0848
rtoes -2.84985
lfemur -63.3915 5.89572 -22.6411
ltibia 76.5638
lfoot -26.5738 7.12619
ltoes -13.221
11
root 45.8668 13.7316 -3.78721 -173.985 84.2194 168.783
lowerback 28.7728 -2.04999 0.452896
upperback 6.88678 -1.80204 0.211722
thorax -8.14268 -0.585036 0.560756
lowerneck -4.7365 -0.860294 1.94071
upperneck -19.7103 -0.331085 0.778617
head -5.17063 -0.0122638 -0.102059
rclavicle 2.6339e-015 -1.61016e-014
rhumerus -17.537 6.99969 -85.1095
rradius 45.8556
rwrist -6.37152
rhand -20.9963 -7.8659
rfingers 7.12502
rthumb 5.37797 -37.7777
lclavicle 2.6339e-015 -1.61016e-014
lhumerus -19.3043 -10.6897 83.9905
lradius 43.8228
lwrist 23.9998
lhand -14.9869 13.5887
lfingers 7.12502
lthumb 11.1774 43.271
rfemur -65.0825 -9.12636 23.7393
rtibia 83.539
rfoot -32.4812 -10.0985
rtoes -2.85732
lfemur -63.3986 5.87908 -22.6502
ltibia 76.5441
lfoot -26.5637 7.12641
ltoes -13.1737
12
root 45.8638 13.7321 -3.78798 -174.061 84.2245 168.7
lowerback 28.79 -2.04477 0.452952
upperback 6.88535 -1.79525 0.209146
thorax -8.15278 -0.581695 0.555892
lowerneck -4.73304 -0.860689 1.93835
upperneck -19.7057 -0.332835 0.773234
head -5.16974 -0.0127771 -0.103278
rclavicle 1.20762e-014 -6.26172e-015
rhumerus -17.556 7 -85.1031
rradius 45.8476
rwrist -6.37052
rhand -20.9814 -7.86786
rfingers 7.12502
rthumb 5.39231 -37.7792
lclavicle 1.20762e-014 -6.26172e-015
lhumerus -19.2896 -10.6967 84.0036
lradius 43.8043
lwrist 24.0318
lhand -15.1051 13.5629
lfingers 7.12502
lthumb 11.0633 43.2513
rfemur -65.1007 -9.11004 23.7241
rtibia 83.5302
rfoot -32.4683 -10.1156
rtoes -2.86902
lfemur -63.4059 5.8677 -22.6607
ltibia 76.5247
lfoot -26.5535 7.12565
ltoes -13.1285
13
root 45.8607 13.7327 -3.78867 -174.13 84.2311 168.621
lowerback 28.8049 -2.03787 0.451669
upperback 6.88351 -1.78682 0.206755
thorax -8.16221 -0.577617 0.551395
lowerneck -4.73589 -0.860422 1.9374
upperneck -19.6935 -0.333849 0.769327
head -5.16544 -0.0131214 -0.104283
rclavicle 2.76559e-014 -7.0817e-015
rhumerus -17.5691 7.00341 -85.0955
rradius 45.8305
rwrist -6.37441
rhand -20.9699 -7.86614
rfingers 7.12502
rthumb 5.40338 -37.7773
lclavicle 2.76559e-014 -7.0817e-015
lhumerus -19.2745 -10.7049 84.0172
lradius 43.7902
lwrist 24.0707
lhand -15.2312 13.5368
lfingers 7.12502
lthumb 10.9417 43.2317
rfemur -65.1207 -9.09085 23.7097
rtibia 83.5203
rfoot -32.4544 -10.1313
rtoes -2.8718
lfemur -63.4176 5.86055 -22.6717
ltibia 76.5055
lfoot -26.5415 7.12458
ltoes -13.0928
14
root 45.8578 13.7334 -3.78936 -174.181 84.2383 168.559
lowerback 28.8181 -2.03039 0.450741
upperback 6.88043 -1.77769 0.20495
thorax -8.17221 -0.573286 0.54709
lowerneck -4.73597 -0.859672 1.93451
upperneck -19.6815 -0.333343 0.770738
head -5.16166 -0.0129254 -0.10334
rclavicle 3.08365e-014 1.01132e-014
rhumerus -17.5801 7.01533 -85.0888
rradius 45.8035
rwrist -6.39963
rhand -20.9865 -7.85125
rfingers 7.12502
rthumb 5.3874 -37.7628
lclavicle 3.08365e-014 1.01132e-014
lhumerus -19.2629 -10.7128 84.0315
lradius 43.7828
lwrist 24.1134
lhand -15.3598 13.5167
lfingers 7.12502
lthumb 10.8177 43.2181
rfemur -65.1406 -9.07225 23.6976
rtibia 83.5091
rfoot -32.4382 -10.1431
rtoes -2.86951
lfemur -63.431 5.85685 -22.6821
ltibia 76.4866
lfoot -26.5283 7.11991
ltoes -13.0576
